<svg width="24" height="20" viewBox="0 0 24 20" fill="none" xmlns="http://www.w3.org/2000/svg">
    <path d="M19.95 1.5H4.05C1.81325 1.5 0 3.31325 0 5.55V14.45C0 16.6868 1.81325 18.5 4.05 18.5H19.95C22.1868 18.5 24 16.6868 24 14.45V5.55C24 3.31325 22.1868 1.5 19.95 1.5Z" fill="#2E32AB"></path>
    <path d="M12.19 5.68C12.6871 5.68 13.09 5.27706 13.09 4.78C13.09 4.28295 12.6871 3.88 12.19 3.88C11.693 3.88 11.29 4.28295 11.29 4.78C11.29 5.27706 11.693 5.68 12.19 5.68Z" fill="#FFF782"></path>
    <path d="M12.19 5.79999C11.9922 5.79999 11.7989 5.74134 11.6344 5.63146C11.47 5.52158 11.3418 5.3654 11.2661 5.18267C11.1904 4.99995 11.1706 4.79888 11.2092 4.6049C11.2478 4.41092 11.343 4.23273 11.4829 4.09288C11.6227 3.95303 11.8009 3.85779 11.9949 3.8192C12.1889 3.78062 12.39 3.80042 12.5727 3.87611C12.7554 3.9518 12.9116 4.07997 13.0215 4.24442C13.1314 4.40887 13.19 4.60221 13.19 4.79999C13.19 5.0652 13.0846 5.31956 12.8971 5.50709C12.7096 5.69463 12.4552 5.79999 12.19 5.79999ZM12.19 3.99999C12.0357 3.99999 11.8849 4.04573 11.7567 4.13144C11.6284 4.21715 11.5284 4.33897 11.4694 4.48149C11.4103 4.62402 11.3949 4.78085 11.425 4.93216C11.4551 5.08346 11.5294 5.22245 11.6385 5.33153C11.7475 5.44062 11.8865 5.5149 12.0378 5.545C12.1891 5.5751 12.346 5.55965 12.4885 5.50061C12.631 5.44158 12.7528 5.3416 12.8385 5.21333C12.9243 5.08506 12.97 4.93426 12.97 4.77999C12.97 4.57312 12.8878 4.37472 12.7415 4.22844C12.5953 4.08217 12.3969 3.99999 12.19 3.99999V3.99999Z" fill="#FFDC82"></path>
    <path d="M12.19 16.13C12.6871 16.13 13.09 15.727 13.09 15.23C13.09 14.7329 12.6871 14.33 12.19 14.33C11.693 14.33 11.29 14.7329 11.29 15.23C11.29 15.727 11.693 16.13 12.19 16.13Z" fill="#FFF782"></path>
    <path d="M12.19 16.25C11.9922 16.25 11.7989 16.1914 11.6344 16.0815C11.47 15.9716 11.3418 15.8154 11.2661 15.6327C11.1904 15.45 11.1706 15.2489 11.2092 15.0549C11.2478 14.8609 11.343 14.6827 11.4829 14.5429C11.6227 14.403 11.8009 14.3078 11.9949 14.2692C12.1889 14.2306 12.39 14.2504 12.5727 14.3261C12.7554 14.4018 12.9116 14.53 13.0215 14.6944C13.1314 14.8589 13.19 15.0522 13.19 15.25C13.19 15.5152 13.0846 15.7696 12.8971 15.9571C12.7096 16.1446 12.4552 16.25 12.19 16.25ZM12.19 14.45C12.0357 14.45 11.8849 14.4957 11.7567 14.5815C11.6284 14.6672 11.5284 14.789 11.4694 14.9315C11.4103 15.074 11.3949 15.2309 11.425 15.3822C11.4551 15.5335 11.5294 15.6725 11.6385 15.7815C11.7475 15.8906 11.8865 15.9649 12.0378 15.995C12.1891 16.0251 12.346 16.0097 12.4885 15.9506C12.631 15.8916 12.7528 15.7916 12.8385 15.6633C12.9243 15.5351 12.97 15.3843 12.97 15.23C12.97 15.0231 12.8878 14.8247 12.7415 14.6785C12.5953 14.5322 12.3969 14.45 12.19 14.45V14.45Z" fill="#FFDC82"></path>
    <path d="M8.32001 14.58C8.81707 14.58 9.22001 14.1771 9.22001 13.68C9.22001 13.1829 8.81707 12.78 8.32001 12.78C7.82296 12.78 7.42001 13.1829 7.42001 13.68C7.42001 14.1771 7.82296 14.58 8.32001 14.58Z" fill="#FFF782"></path>
    <path d="M8.32001 14.7C8.12223 14.7 7.92889 14.6414 7.76444 14.5315C7.59999 14.4216 7.47182 14.2654 7.39613 14.0827C7.32044 13.9 7.30064 13.6989 7.33922 13.5049C7.37781 13.3109 7.47305 13.1328 7.6129 12.9929C7.75275 12.8531 7.93094 12.7578 8.12492 12.7192C8.3189 12.6806 8.51997 12.7004 8.70269 12.7761C8.88542 12.8518 9.0416 12.98 9.15148 13.1444C9.26136 13.3089 9.32001 13.5022 9.32001 13.7C9.32001 13.9652 9.21465 14.2196 9.02711 14.4071C8.83958 14.5947 8.58522 14.7 8.32001 14.7ZM8.32001 12.9C8.11488 12.9026 7.91904 12.986 7.77492 13.132C7.6308 13.278 7.54999 13.4749 7.55001 13.68C7.57167 13.8704 7.66264 14.0461 7.80557 14.1737C7.94851 14.3013 8.13341 14.3718 8.32501 14.3718C8.51661 14.3718 8.70151 14.3013 8.84444 14.1737C8.98738 14.0461 9.07835 13.8704 9.10001 13.68C9.10001 13.5776 9.07983 13.4762 9.04063 13.3815C9.00143 13.2869 8.94398 13.2009 8.87155 13.1285C8.79912 13.056 8.71313 12.9986 8.6185 12.9594C8.52387 12.9202 8.42244 12.9 8.32001 12.9Z" fill="#FFDC82"></path>
    <path d="M15.68 7.22001C16.1771 7.22001 16.58 6.81707 16.58 6.32001C16.58 5.82296 16.1771 5.42001 15.68 5.42001C15.1829 5.42001 14.78 5.82296 14.78 6.32001C14.78 6.81707 15.1829 7.22001 15.68 7.22001Z" fill="#FFF782"></path>
    <path d="M15.68 7.35001C15.4822 7.35001 15.2889 7.29136 15.1244 7.18148C14.96 7.07159 14.8318 6.91542 14.7561 6.73269C14.6804 6.54996 14.6606 6.3489 14.6992 6.15492C14.7378 5.96094 14.833 5.78275 14.9729 5.6429C15.1127 5.50305 15.2909 5.40781 15.4849 5.36922C15.6789 5.33064 15.8799 5.35044 16.0627 5.42613C16.2454 5.50181 16.4016 5.62999 16.5115 5.79444C16.6213 5.95889 16.68 6.15223 16.68 6.35001C16.68 6.61522 16.5746 6.86958 16.3871 7.05711C16.1996 7.24465 15.9452 7.35001 15.68 7.35001ZM15.68 5.55001C15.5249 5.54803 15.3727 5.59234 15.2429 5.67729C15.1131 5.76223 15.0116 5.88394 14.9513 6.02687C14.8911 6.16979 14.8748 6.32745 14.9046 6.47968C14.9343 6.63191 15.0088 6.7718 15.1185 6.88149C15.2282 6.99117 15.3681 7.06566 15.5203 7.09544C15.6726 7.12521 15.8302 7.10893 15.9731 7.04865C16.1161 6.98838 16.2378 6.88686 16.3227 6.75707C16.4077 6.62728 16.452 6.47511 16.45 6.32001C16.4474 6.1166 16.3654 5.92225 16.2216 5.7784C16.0778 5.63455 15.8834 5.5526 15.68 5.55001Z" fill="#FFDC82"></path>
    <path d="M6.77 10.71C7.26705 10.71 7.67 10.3071 7.67 9.81C7.67 9.31295 7.26705 8.91 6.77 8.91C6.27294 8.91 5.87 9.31295 5.87 9.81C5.87 10.3071 6.27294 10.71 6.77 10.71Z" fill="#FFF782"></path>
    <path d="M6.76999 10.83C6.57221 10.83 6.37887 10.7713 6.21442 10.6615C6.04997 10.5516 5.9218 10.3954 5.84611 10.2127C5.77042 10.0299 5.75062 9.82888 5.7892 9.6349C5.82779 9.44092 5.92303 9.26273 6.06288 9.12288C6.20274 8.98303 6.38092 8.88779 6.5749 8.8492C6.76888 8.81062 6.96995 8.83042 7.15267 8.90611C7.3354 8.9818 7.49158 9.10997 7.60146 9.27442C7.71134 9.43887 7.76999 9.63221 7.76999 9.82999C7.76999 10.0952 7.66463 10.3496 7.4771 10.5371C7.28956 10.7246 7.03521 10.83 6.76999 10.83ZM6.76999 9.02999C6.61572 9.02999 6.46492 9.07573 6.33664 9.16144C6.20837 9.24715 6.1084 9.36897 6.04936 9.51149C5.99033 9.65402 5.97488 9.81085 6.00498 9.96216C6.03507 10.1135 6.10936 10.2524 6.21845 10.3615C6.32753 10.4706 6.46651 10.5449 6.61782 10.575C6.76912 10.6051 6.92596 10.5896 7.06848 10.5306C7.21101 10.4716 7.33283 10.3716 7.41854 10.2433C7.50424 10.1151 7.54999 9.96426 7.54999 9.80999C7.55403 9.70506 7.53684 9.6004 7.49945 9.50227C7.46207 9.40415 7.40525 9.31458 7.33242 9.23895C7.25958 9.16331 7.17222 9.10316 7.07558 9.0621C6.97893 9.02103 6.87499 8.99991 6.76999 8.99999V9.02999Z" fill="#FFDC82"></path>
    <path d="M17.23 11.09C17.727 11.09 18.13 10.6871 18.13 10.19C18.13 9.69295 17.727 9.29001 17.23 9.29001C16.7329 9.29001 16.33 9.69295 16.33 10.19C16.33 10.6871 16.7329 11.09 17.23 11.09Z" fill="#FFF782"></path>
    <path d="M17.23 11.22C17.0322 11.22 16.8389 11.1614 16.6744 11.0515C16.51 10.9416 16.3818 10.7854 16.3061 10.6027C16.2304 10.42 16.2106 10.2189 16.2492 10.0249C16.2878 9.83093 16.3831 9.65275 16.5229 9.5129C16.6628 9.37304 16.8409 9.2778 17.0349 9.23922C17.2289 9.20063 17.43 9.22043 17.6127 9.29612C17.7954 9.37181 17.9516 9.49998 18.0615 9.66443C18.1714 9.82888 18.23 10.0222 18.23 10.22C18.23 10.4852 18.1247 10.7396 17.9371 10.9271C17.7496 11.1146 17.4952 11.22 17.23 11.22ZM17.23 9.42C17.0749 9.41803 16.9227 9.46234 16.7929 9.54728C16.6632 9.63222 16.5616 9.75393 16.5014 9.89686C16.4411 10.0398 16.4248 10.1974 16.4546 10.3497C16.4844 10.5019 16.5588 10.6418 16.6685 10.7515C16.7782 10.8612 16.9181 10.9357 17.0703 10.9654C17.2226 10.9952 17.3802 10.9789 17.5232 10.9186C17.6661 10.8584 17.7878 10.7569 17.8727 10.6271C17.9577 10.4973 18.002 10.3451 18 10.19C17.9974 9.98659 17.9155 9.79224 17.7716 9.6484C17.6278 9.50455 17.4334 9.42259 17.23 9.42V9.42Z" fill="#FFDC82"></path>
    <path d="M8.32001 7.22001C8.81707 7.22001 9.22001 6.81707 9.22001 6.32001C9.22001 5.82296 8.81707 5.42001 8.32001 5.42001C7.82296 5.42001 7.42001 5.82296 7.42001 6.32001C7.42001 6.81707 7.82296 7.22001 8.32001 7.22001Z" fill="#FFF782"></path>
    <path d="M8.32001 7.35001C8.12223 7.35001 7.92889 7.29136 7.76444 7.18148C7.59999 7.07159 7.47182 6.91542 7.39613 6.73269C7.32044 6.54996 7.30064 6.3489 7.33922 6.15492C7.37781 5.96094 7.47305 5.78275 7.6129 5.6429C7.75275 5.50305 7.93094 5.40781 8.12492 5.36922C8.3189 5.33064 8.51997 5.35044 8.70269 5.42613C8.88542 5.50181 9.0416 5.62999 9.15148 5.79444C9.26136 5.95889 9.32001 6.15223 9.32001 6.35001C9.32001 6.61522 9.21465 6.86958 9.02711 7.05711C8.83958 7.24465 8.58522 7.35001 8.32001 7.35001ZM8.32001 5.55001C8.16531 5.55002 8.01412 5.59603 7.88564 5.68219C7.75716 5.76834 7.65721 5.89076 7.59847 6.03387C7.53974 6.17698 7.52489 6.33432 7.55581 6.48589C7.58672 6.63746 7.66201 6.77642 7.7721 6.8851C7.88219 6.99377 8.0221 7.06726 8.17406 7.09622C8.32602 7.12518 8.48315 7.1083 8.6255 7.04772C8.76784 6.98715 8.88895 6.88562 8.97344 6.75604C9.05794 6.62646 9.10199 6.47469 9.10001 6.32001C9.09738 6.11488 9.01404 5.91904 8.86804 5.77492C8.72205 5.63079 8.52516 5.54999 8.32001 5.55001V5.55001Z" fill="#FFDC82"></path>
    <path d="M15.68 14.58C16.1771 14.58 16.58 14.1771 16.58 13.68C16.58 13.1829 16.1771 12.78 15.68 12.78C15.1829 12.78 14.78 13.1829 14.78 13.68C14.78 14.1771 15.1829 14.58 15.68 14.58Z" fill="#FFF782"></path>
    <path d="M15.68 14.7C15.4822 14.7 15.2889 14.6414 15.1244 14.5315C14.96 14.4216 14.8318 14.2654 14.7561 14.0827C14.6804 13.9 14.6606 13.6989 14.6992 13.5049C14.7378 13.3109 14.833 13.1328 14.9729 12.9929C15.1127 12.8531 15.2909 12.7578 15.4849 12.7192C15.6789 12.6806 15.8799 12.7004 16.0627 12.7761C16.2454 12.8518 16.4016 12.98 16.5115 13.1444C16.6213 13.3089 16.68 13.5022 16.68 13.7C16.68 13.9652 16.5746 14.2196 16.3871 14.4071C16.1996 14.5947 15.9452 14.7 15.68 14.7ZM15.68 12.9C15.4731 12.9 15.2747 12.9822 15.1284 13.1285C14.9822 13.2747 14.9 13.4731 14.9 13.68C14.9 13.8343 14.9457 13.9851 15.0314 14.1134C15.1172 14.2416 15.239 14.3416 15.3815 14.4006C15.524 14.4597 15.6809 14.4751 15.8322 14.445C15.9835 14.4149 16.1225 14.3406 16.2315 14.2316C16.3406 14.1225 16.4149 13.9835 16.445 13.8322C16.4751 13.6809 16.4597 13.524 16.4006 13.3815C16.3416 13.239 16.2416 13.1172 16.1133 13.0315C15.9851 12.9458 15.8343 12.9 15.68 12.9Z" fill="#FFDC82"></path>
</svg>