<svg width="734" height="155" viewBox="0 0 734 155" fill="none" xmlns="http://www.w3.org/2000/svg">
<path d="M640.582 60V33.8182H650.605C652.497 33.8182 654.07 34.1165 655.322 34.7131C656.584 35.3011 657.526 36.1065 658.148 37.1293C658.778 38.152 659.094 39.3111 659.094 40.6065C659.094 41.6719 658.889 42.5838 658.48 43.3423C658.071 44.0923 657.521 44.7017 656.831 45.1705C656.141 45.6392 655.369 45.9759 654.517 46.1804V46.4361C655.446 46.4872 656.337 46.7727 657.189 47.2926C658.05 47.804 658.753 48.5284 659.298 49.4659C659.844 50.4034 660.117 51.5369 660.117 52.8665C660.117 54.2216 659.788 55.4403 659.132 56.5227C658.476 57.5966 657.487 58.4446 656.166 59.0668C654.845 59.6889 653.183 60 651.18 60H640.582ZM645.325 56.0369H650.426C652.148 56.0369 653.388 55.7088 654.146 55.0526C654.913 54.3878 655.297 53.5355 655.297 52.4957C655.297 51.7202 655.105 51.0213 654.722 50.3991C654.338 49.7685 653.793 49.2741 653.085 48.9162C652.378 48.5497 651.534 48.3665 650.554 48.3665H645.325V56.0369ZM645.325 44.9531H650.017C650.835 44.9531 651.572 44.804 652.229 44.5057C652.885 44.1989 653.401 43.7685 653.776 43.2145C654.159 42.652 654.351 41.9872 654.351 41.2202C654.351 40.206 653.993 39.3707 653.277 38.7145C652.57 38.0582 651.517 37.7301 650.119 37.7301H645.325V44.9531ZM664.243 60V33.8182H681.271V37.794H668.985V44.902H680.389V48.8778H668.985V56.0241H681.373V60H664.243ZM684.959 37.794V33.8182H705.848V37.794H697.756V60H693.052V37.794H684.959ZM710.074 60H705.011L714.228 33.8182H720.083L729.314 60H724.251L717.258 39.1875H717.054L710.074 60ZM710.24 49.7344H724.047V53.544H710.24V49.7344Z" fill="black"/>
<path d="M479.926 139L482.807 130.392H495.932L498.83 139H505.58L493.273 104.091H485.466L473.176 139H479.926ZM484.511 125.312L489.233 111.25H489.506L494.227 125.312H484.511ZM518.824 139.46C523.324 139.46 525.352 136.784 526.324 134.875H526.699V139H532.767V104.091H526.58V117.148H526.324C525.386 115.256 523.46 112.477 518.841 112.477C512.79 112.477 508.034 117.216 508.034 125.943C508.034 134.568 512.653 139.46 518.824 139.46ZM520.545 134.398C516.472 134.398 514.324 130.818 514.324 125.909C514.324 121.034 516.438 117.54 520.545 117.54C524.517 117.54 526.699 120.83 526.699 125.909C526.699 130.989 524.483 134.398 520.545 134.398ZM539.342 139H545.513V123.08C545.513 119.858 547.661 117.676 550.32 117.676C552.928 117.676 554.717 119.432 554.717 122.125V139H560.768V122.67C560.768 119.722 562.524 117.676 565.507 117.676C567.996 117.676 569.973 119.142 569.973 122.381V139H576.161V121.426C576.161 115.58 572.786 112.477 567.979 112.477C564.178 112.477 561.28 114.352 560.121 117.267H559.848C558.842 114.301 556.303 112.477 552.774 112.477C549.263 112.477 546.638 114.284 545.547 117.267H545.24V112.818H539.342V139ZM582.42 139H588.591V112.818H582.42V139ZM585.523 109.102C587.483 109.102 589.085 107.602 589.085 105.761C589.085 103.903 587.483 102.403 585.523 102.403C583.545 102.403 581.943 103.903 581.943 105.761C581.943 107.602 583.545 109.102 585.523 109.102ZM601.107 123.659C601.107 119.875 603.391 117.693 606.646 117.693C609.834 117.693 611.743 119.79 611.743 123.284V139H617.913V122.33C617.93 116.057 614.351 112.477 608.947 112.477C605.027 112.477 602.334 114.352 601.141 117.267H600.834V112.818H594.936V139H601.107V123.659Z" fill="black"/>
<path d="M184.886 93H197.534V67.4318H210.421L224.125 93H238.239L223.136 65.3182C231.352 62.0114 235.682 54.9886 235.682 45.5114C235.682 32.1818 227.091 23.1818 211.068 23.1818H184.886V93ZM197.534 56.9318V33.75H209.125C218.568 33.75 222.796 38.0795 222.796 45.5114C222.796 52.9432 218.568 56.9318 209.193 56.9318H197.534ZM280.153 70.9773C280.153 78.9545 274.46 82.9091 269.006 82.9091C263.074 82.9091 259.119 78.7159 259.119 72.0682V40.6364H246.778V73.9773C246.778 86.5568 253.938 93.6818 264.233 93.6818C272.074 93.6818 277.597 89.5568 279.983 83.6932H280.528V93H292.494V40.6364H280.153V70.9773ZM331.332 40.6364H321.003V28.0909H308.662V40.6364H301.23V50.1818H308.662V79.2955C308.594 89.1477 315.753 93.9886 325.026 93.7159C328.537 93.6136 330.957 92.9318 332.287 92.4886L330.207 82.8409C329.526 83.0114 328.128 83.3182 326.594 83.3182C323.492 83.3182 321.003 82.2273 321.003 77.25V50.1818H331.332V40.6364ZM382.29 54.4773C380.585 45.6136 373.494 39.9545 361.222 39.9545C348.608 39.9545 340.017 46.1591 340.051 55.8409C340.017 63.4773 344.722 68.5227 354.778 70.6023L363.71 72.4773C368.517 73.5341 370.767 75.4773 370.767 78.4432C370.767 82.0227 366.881 84.7159 361.017 84.7159C355.358 84.7159 351.676 82.2614 350.619 77.5568L338.585 78.7159C340.119 88.3295 348.199 94.0227 361.051 94.0227C374.142 94.0227 383.381 87.2386 383.415 77.3182C383.381 69.8523 378.574 65.2841 368.688 63.1364L359.756 61.2273C354.438 60.0341 352.324 58.1932 352.358 55.1591C352.324 51.6136 356.244 49.1591 361.392 49.1591C367.085 49.1591 370.085 52.2614 371.04 55.7045L382.29 54.4773ZM426.966 70.9773C426.966 78.9545 421.273 82.9091 415.818 82.9091C409.886 82.9091 405.932 78.7159 405.932 72.0682V40.6364H393.591V73.9773C393.591 86.5568 400.75 93.6818 411.046 93.6818C418.886 93.6818 424.409 89.5568 426.796 83.6932H427.341V93H439.307V40.6364H426.966V70.9773ZM452.543 93H465.19V72.2045L472.929 63.0682L493.759 93H508.963L481.724 54.5114L508.724 23.1818H493.281L466.043 55.2614H465.19V23.1818H452.543V93ZM547.06 70.9773C547.06 78.9545 541.367 82.9091 535.912 82.9091C529.98 82.9091 526.026 78.7159 526.026 72.0682V40.6364H513.685V73.9773C513.685 86.5568 520.844 93.6818 531.139 93.6818C538.98 93.6818 544.503 89.5568 546.889 83.6932H547.435V93H559.401V40.6364H547.06V70.9773ZM584.432 62.3182C584.432 54.75 589 50.3864 595.511 50.3864C601.886 50.3864 605.705 54.5795 605.705 61.5682V93H618.046V59.6591C618.08 47.1136 610.921 39.9545 600.114 39.9545C592.273 39.9545 586.886 43.7045 584.5 49.5341H583.886V40.6364H572.091V93H584.432V62.3182Z" fill="black"/>
<mask id="mask0_5_7" style="mask-type:alpha" maskUnits="userSpaceOnUse" x="28" y="20" width="102" height="102">
<path d="M103.692 38.9975C103.352 38.9975 103.012 38.9125 102.715 38.7425C94.555 34.535 87.5 32.75 79.0425 32.75C70.6275 32.75 62.6375 34.7475 55.37 38.7425C54.35 39.295 53.075 38.9125 52.48 37.8925C51.9275 36.8725 52.31 35.555 53.33 35.0025C61.235 30.71 69.905 28.5 79.0425 28.5C88.095 28.5 96 30.4975 104.67 34.96C105.732 35.5125 106.115 36.7875 105.562 37.8075C105.18 38.5725 104.457 38.9975 103.692 38.9975ZM42.875 61.31C42.45 61.31 42.025 61.1825 41.6425 60.9275C40.665 60.2475 40.4525 58.93 41.1325 57.9525C45.34 52.0025 50.695 47.3275 57.07 44.055C70.415 37.17 87.5 37.1275 100.887 44.0125C107.262 47.285 112.617 51.9175 116.825 57.825C117.505 58.76 117.292 60.12 116.315 60.8C115.338 61.48 114.02 61.2675 113.34 60.29C109.515 54.935 104.67 50.7275 98.9325 47.795C86.735 41.5475 71.1375 41.5475 58.9825 47.8375C53.2025 50.8125 48.3575 55.0625 44.5325 60.4175C44.1925 61.0125 43.555 61.31 42.875 61.31ZM69.4375 112.608C68.885 112.608 68.3325 112.395 67.95 111.97C64.2525 108.272 62.255 105.893 59.4075 100.75C56.475 95.5225 54.945 89.1475 54.945 82.305C54.945 69.6825 65.74 59.3975 79 59.3975C92.26 59.3975 103.055 69.6825 103.055 82.305C103.055 83.495 102.12 84.43 100.93 84.43C99.74 84.43 98.805 83.495 98.805 82.305C98.805 72.02 89.9225 63.6475 79 63.6475C68.0775 63.6475 59.195 72.02 59.195 82.305C59.195 88.425 60.555 94.0775 63.1475 98.6675C65.8675 103.555 67.7375 105.638 71.01 108.952C71.8175 109.802 71.8175 111.12 71.01 111.97C70.5425 112.395 69.99 112.608 69.4375 112.608ZM99.91 104.745C94.8525 104.745 90.39 103.47 86.735 100.962C80.4025 96.67 76.62 89.7 76.62 82.305C76.62 81.115 77.555 80.18 78.745 80.18C79.935 80.18 80.87 81.115 80.87 82.305C80.87 88.2975 83.93 93.95 89.115 97.435C92.1325 99.475 95.66 100.452 99.91 100.452C100.93 100.452 102.63 100.325 104.33 100.027C105.477 99.815 106.582 100.58 106.795 101.77C107.007 102.917 106.242 104.022 105.052 104.235C102.63 104.702 100.505 104.745 99.91 104.745ZM91.3675 113.5C91.1975 113.5 90.985 113.457 90.815 113.415C84.0575 111.545 79.6375 109.037 75.005 104.49C69.055 98.5825 65.7825 90.72 65.7825 82.305C65.7825 75.42 71.6475 69.81 78.8725 69.81C86.0975 69.81 91.9625 75.42 91.9625 82.305C91.9625 86.8525 95.915 90.55 100.802 90.55C105.69 90.55 109.642 86.8525 109.642 82.305C109.642 66.2825 95.83 53.2775 78.83 53.2775C66.76 53.2775 55.71 59.9925 50.7375 70.405C49.08 73.8475 48.23 77.885 48.23 82.305C48.23 85.62 48.5275 90.8475 51.0775 97.6475C51.5025 98.7525 50.95 99.985 49.845 100.368C48.74 100.792 47.5075 100.198 47.125 99.135C45.0425 93.5675 44.0225 88.0425 44.0225 82.305C44.0225 77.205 45 72.5725 46.9125 68.535C52.565 56.6775 65.1025 48.985 78.83 48.985C98.1675 48.985 113.892 63.9025 113.892 82.2625C113.892 89.1475 108.027 94.7575 100.802 94.7575C93.5775 94.7575 87.7125 89.1475 87.7125 82.2625C87.7125 77.715 83.76 74.0175 78.8725 74.0175C73.985 74.0175 70.0325 77.715 70.0325 82.2625C70.0325 89.53 72.8375 96.33 77.98 101.43C82.0175 105.425 85.885 107.635 91.8775 109.293C93.025 109.59 93.6625 110.78 93.365 111.885C93.1525 112.863 92.26 113.5 91.3675 113.5Z" fill="black"/>
</mask>
<g mask="url(#mask0_5_7)">
<rect x="3.05176e-05" width="149" height="155" fill="url(#paint0_linear_5_7)"/>
</g>
<mask id="mask1_5_7" style="mask-type:alpha" maskUnits="userSpaceOnUse" x="19" y="6" width="120" height="143">
<path d="M55.4935 16.5507L55.501 16.5485C64.8395 13.9106 73.9676 11.7931 79.0214 11.7931C84.0738 11.7931 93.1917 13.9168 102.538 16.5388C110.687 18.869 118.781 21.4032 126.813 24.1391C128.23 24.6273 129.513 25.5295 130.5 26.7699C131.489 28.0136 132.135 29.542 132.342 31.1835L132.344 31.1939C137.229 69.3174 125.905 97.3392 112.33 115.788L112.324 115.797L112.318 115.805C106.563 123.695 99.7067 130.636 91.9807 136.399L91.9793 136.4C89.4074 138.32 86.6851 140.008 83.8421 141.446C81.5526 142.56 79.8999 143.043 79.0214 143.043C78.1375 143.043 76.4631 142.554 74.1766 141.434L74.1727 141.432C71.9086 140.326 69.1273 138.65 66.0482 136.389C58.328 130.627 51.4761 123.69 45.7246 115.805L45.7185 115.796L45.7123 115.788C32.1376 97.3392 20.8142 69.3174 25.6991 31.1939L25.7003 31.1848C25.9074 29.5447 26.5537 28.0178 27.5429 26.7755C28.5292 25.5368 29.8111 24.6361 31.2265 24.149C36.7851 22.2621 46.192 19.1625 55.4935 16.5507Z" stroke="white" stroke-width="10"/>
</mask>
<g mask="url(#mask1_5_7)">
<rect x="41.127" y="202.376" width="167.287" height="183" transform="rotate(-123.911 41.127 202.376)" fill="url(#paint1_linear_5_7)"/>
</g>
<defs>
<linearGradient id="paint0_linear_5_7" x1="56.4005" y1="4.28729" x2="60.8104" y2="172.752" gradientUnits="userSpaceOnUse">
<stop stop-color="#E82525"/>
<stop offset="1" stop-color="#9E00FF"/>
</linearGradient>
<linearGradient id="paint1_linear_5_7" x1="104.45" y1="207.438" x2="109.924" y2="406.32" gradientUnits="userSpaceOnUse">
<stop stop-color="#E82525"/>
<stop offset="1" stop-color="#9E00FF"/>
</linearGradient>
</defs>
</svg>
