<svg width="754" height="155" viewBox="0 0 754 155" fill="none" xmlns="http://www.w3.org/2000/svg">
<path d="M645.582 55V28.8182H655.605C657.497 28.8182 659.07 29.1165 660.322 29.7131C661.584 30.3011 662.526 31.1065 663.148 32.1293C663.778 33.152 664.094 34.3111 664.094 35.6065C664.094 36.6719 663.889 37.5838 663.48 38.3423C663.071 39.0923 662.521 39.7017 661.831 40.1705C661.141 40.6392 660.369 40.9759 659.517 41.1804V41.4361C660.446 41.4872 661.337 41.7727 662.189 42.2926C663.05 42.804 663.753 43.5284 664.298 44.4659C664.844 45.4034 665.116 46.5369 665.116 47.8665C665.116 49.2216 664.788 50.4403 664.132 51.5227C663.476 52.5966 662.487 53.4446 661.166 54.0668C659.845 54.6889 658.183 55 656.18 55H645.582ZM650.325 51.0369H655.426C657.148 51.0369 658.388 50.7088 659.146 50.0526C659.913 49.3878 660.297 48.5355 660.297 47.4957C660.297 46.7202 660.105 46.0213 659.722 45.3991C659.338 44.7685 658.793 44.2741 658.085 43.9162C657.378 43.5497 656.534 43.3665 655.554 43.3665H650.325V51.0369ZM650.325 39.9531H655.017C655.835 39.9531 656.572 39.804 657.229 39.5057C657.885 39.1989 658.401 38.7685 658.776 38.2145C659.159 37.652 659.351 36.9872 659.351 36.2202C659.351 35.206 658.993 34.3707 658.277 33.7145C657.57 33.0582 656.517 32.7301 655.119 32.7301H650.325V39.9531ZM669.243 55V28.8182H686.271V32.794H673.985V39.902H685.389V43.8778H673.985V51.0241H686.373V55H669.243ZM689.959 32.794V28.8182H710.848V32.794H702.756V55H698.051V32.794H689.959ZM715.074 55H710.011L719.228 28.8182H725.083L734.314 55H729.251L722.258 34.1875H722.054L715.074 55ZM715.24 44.7344H729.047V48.544H715.24V44.7344Z" fill="white"/>
<path d="M405.926 140L408.807 131.392H421.932L424.83 140H431.58L419.273 105.091H411.466L399.176 140H405.926ZM410.511 126.312L415.233 112.25H415.506L420.227 126.312H410.511ZM446.528 140.511C453.108 140.511 457.301 136.608 457.744 131.051H451.847C451.318 133.864 449.29 135.483 446.58 135.483C442.727 135.483 440.239 132.261 440.239 126.909C440.239 121.625 442.778 118.455 446.58 118.455C449.545 118.455 451.369 120.364 451.847 122.886H457.744C457.318 117.21 452.886 113.477 446.494 113.477C438.824 113.477 433.983 119.017 433.983 127.011C433.983 134.938 438.705 140.511 446.528 140.511ZM474.232 140.511C480.811 140.511 485.004 136.608 485.447 131.051H479.55C479.021 133.864 476.993 135.483 474.283 135.483C470.43 135.483 467.942 132.261 467.942 126.909C467.942 121.625 470.482 118.455 474.283 118.455C477.249 118.455 479.072 120.364 479.55 122.886H485.447C485.021 117.21 480.59 113.477 474.197 113.477C466.527 113.477 461.686 119.017 461.686 127.011C461.686 134.938 466.408 140.511 474.232 140.511ZM501.935 140.511C509.605 140.511 514.48 135.108 514.48 127.011C514.48 118.898 509.605 113.477 501.935 113.477C494.264 113.477 489.389 118.898 489.389 127.011C489.389 135.108 494.264 140.511 501.935 140.511ZM501.969 135.568C497.724 135.568 495.645 131.784 495.645 126.994C495.645 122.205 497.724 118.369 501.969 118.369C506.145 118.369 508.224 122.205 508.224 126.994C508.224 131.784 506.145 135.568 501.969 135.568ZM536.405 128.989C536.405 132.977 533.558 134.955 530.831 134.955C527.865 134.955 525.888 132.858 525.888 129.534V113.818H519.717V130.489C519.717 136.778 523.297 140.341 528.445 140.341C532.365 140.341 535.126 138.278 536.32 135.347H536.592V140H542.575V113.818H536.405V128.989ZM555.091 124.659C555.091 120.875 557.375 118.693 560.631 118.693C563.818 118.693 565.727 120.79 565.727 124.284V140H571.898V123.33C571.915 117.057 568.335 113.477 562.932 113.477C559.011 113.477 556.318 115.352 555.125 118.267H554.818V113.818H548.92V140H555.091V124.659ZM591.244 113.818H586.08V107.545H579.909V113.818H576.193V118.591H579.909V133.148C579.875 138.074 583.455 140.494 588.091 140.358C589.847 140.307 591.057 139.966 591.722 139.744L590.682 134.92C590.341 135.006 589.642 135.159 588.875 135.159C587.324 135.159 586.08 134.614 586.08 132.125V118.591H591.244V113.818ZM616.723 120.739C615.871 116.307 612.325 113.477 606.189 113.477C599.882 113.477 595.587 116.58 595.604 121.42C595.587 125.239 597.939 127.761 602.967 128.801L607.433 129.739C609.837 130.267 610.962 131.239 610.962 132.722C610.962 134.511 609.018 135.858 606.087 135.858C603.257 135.858 601.416 134.631 600.888 132.278L594.871 132.858C595.638 137.665 599.678 140.511 606.104 140.511C612.649 140.511 617.268 137.119 617.286 132.159C617.268 128.426 614.865 126.142 609.922 125.068L605.456 124.114C602.797 123.517 601.74 122.597 601.757 121.08C601.74 119.307 603.7 118.08 606.274 118.08C609.121 118.08 610.621 119.631 611.098 121.352L616.723 120.739Z" fill="white"/>
<path d="M184.886 93V23.1818H211.068C216.432 23.1818 220.932 24.1136 224.568 25.9773C228.227 27.8409 230.989 30.4545 232.852 33.8182C234.739 37.1591 235.682 41.0568 235.682 45.5114C235.682 49.9886 234.727 53.875 232.818 57.1705C230.932 60.4432 228.148 62.9773 224.466 64.7727C220.784 66.5455 216.261 67.4318 210.898 67.4318H192.25V56.9318H209.193C212.33 56.9318 214.898 56.5 216.898 55.6364C218.898 54.75 220.375 53.4659 221.33 51.7841C222.307 50.0795 222.795 47.9886 222.795 45.5114C222.795 43.0341 222.307 40.9205 221.33 39.1705C220.352 37.3977 218.864 36.0568 216.864 35.1477C214.864 34.2159 212.284 33.75 209.125 33.75H197.534V93H184.886ZM220.955 61.3636L238.239 93H224.125L207.148 61.3636H220.955ZM280.153 70.9773V40.6364H292.494V93H280.528V83.6932H279.983C278.801 86.625 276.858 89.0227 274.153 90.8864C271.472 92.75 268.165 93.6818 264.233 93.6818C260.801 93.6818 257.767 92.9205 255.131 91.3977C252.517 89.8523 250.472 87.6136 248.994 84.6818C247.517 81.7273 246.778 78.1591 246.778 73.9773V40.6364H259.119V72.0682C259.119 75.3864 260.028 78.0227 261.847 79.9773C263.665 81.9318 266.051 82.9091 269.006 82.9091C270.824 82.9091 272.585 82.4659 274.29 81.5795C275.994 80.6932 277.392 79.375 278.483 77.625C279.597 75.8523 280.153 73.6364 280.153 70.9773ZM331.332 40.6364V50.1818H301.23V40.6364H331.332ZM308.662 28.0909H321.003V77.25C321.003 78.9091 321.253 80.1818 321.753 81.0682C322.276 81.9318 322.957 82.5227 323.798 82.8409C324.639 83.1591 325.571 83.3182 326.594 83.3182C327.367 83.3182 328.071 83.2614 328.707 83.1477C329.367 83.0341 329.867 82.9318 330.207 82.8409L332.287 92.4886C331.628 92.7159 330.685 92.9659 329.457 93.2386C328.253 93.5114 326.776 93.6705 325.026 93.7159C321.935 93.8068 319.151 93.3409 316.673 92.3182C314.196 91.2727 312.23 89.6591 310.776 87.4773C309.344 85.2955 308.639 82.5682 308.662 79.2955V28.0909ZM382.29 54.4773L371.04 55.7045C370.722 54.5682 370.165 53.5 369.369 52.5C368.597 51.5 367.551 50.6932 366.233 50.0795C364.915 49.4659 363.301 49.1591 361.392 49.1591C358.824 49.1591 356.665 49.7159 354.915 50.8295C353.188 51.9432 352.335 53.3864 352.358 55.1591C352.335 56.6818 352.892 57.9205 354.028 58.875C355.188 59.8295 357.097 60.6136 359.756 61.2273L368.688 63.1364C373.642 64.2045 377.324 65.8977 379.733 68.2159C382.165 70.5341 383.392 73.5682 383.415 77.3182C383.392 80.6136 382.426 83.5227 380.517 86.0455C378.631 88.5455 376.006 90.5 372.642 91.9091C369.278 93.3182 365.415 94.0227 361.051 94.0227C354.642 94.0227 349.483 92.6818 345.574 90C341.665 87.2955 339.335 83.5341 338.585 78.7159L350.619 77.5568C351.165 79.9205 352.324 81.7045 354.097 82.9091C355.869 84.1136 358.176 84.7159 361.017 84.7159C363.949 84.7159 366.301 84.1136 368.074 82.9091C369.869 81.7045 370.767 80.2159 370.767 78.4432C370.767 76.9432 370.188 75.7045 369.028 74.7273C367.892 73.75 366.119 73 363.71 72.4773L354.778 70.6023C349.756 69.5568 346.04 67.7955 343.631 65.3182C341.222 62.8182 340.028 59.6591 340.051 55.8409C340.028 52.6136 340.903 49.8182 342.676 47.4545C344.472 45.0682 346.96 43.2273 350.142 41.9318C353.347 40.6136 357.04 39.9545 361.222 39.9545C367.358 39.9545 372.188 41.2614 375.71 43.875C379.256 46.4886 381.449 50.0227 382.29 54.4773ZM426.966 70.9773V40.6364H439.307V93H427.341V83.6932H426.795C425.614 86.625 423.67 89.0227 420.966 90.8864C418.284 92.75 414.977 93.6818 411.045 93.6818C407.614 93.6818 404.58 92.9205 401.943 91.3977C399.33 89.8523 397.284 87.6136 395.807 84.6818C394.33 81.7273 393.591 78.1591 393.591 73.9773V40.6364H405.932V72.0682C405.932 75.3864 406.841 78.0227 408.659 79.9773C410.477 81.9318 412.864 82.9091 415.818 82.9091C417.636 82.9091 419.398 82.4659 421.102 81.5795C422.807 80.6932 424.205 79.375 425.295 77.625C426.409 75.8523 426.966 73.6364 426.966 70.9773ZM452.543 93V23.1818H465.19V55.2614H466.043L493.281 23.1818H508.724L481.724 54.5114L508.963 93H493.759L472.929 63.0682L465.19 72.2045V93H452.543ZM547.06 70.9773V40.6364H559.401V93H547.435V83.6932H546.889C545.707 86.625 543.764 89.0227 541.06 90.8864C538.378 92.75 535.071 93.6818 531.139 93.6818C527.707 93.6818 524.673 92.9205 522.037 91.3977C519.423 89.8523 517.378 87.6136 515.901 84.6818C514.423 81.7273 513.685 78.1591 513.685 73.9773V40.6364H526.026V72.0682C526.026 75.3864 526.935 78.0227 528.753 79.9773C530.571 81.9318 532.957 82.9091 535.912 82.9091C537.73 82.9091 539.492 82.4659 541.196 81.5795C542.901 80.6932 544.298 79.375 545.389 77.625C546.503 75.8523 547.06 73.6364 547.06 70.9773ZM584.432 62.3182V93H572.091V40.6364H583.886V49.5341H584.5C585.705 46.6023 587.625 44.2727 590.261 42.5455C592.92 40.8182 596.205 39.9545 600.114 39.9545C603.727 39.9545 606.875 40.7273 609.557 42.2727C612.261 43.8182 614.352 46.0568 615.83 48.9886C617.33 51.9205 618.068 55.4773 618.045 59.6591V93H605.705V61.5682C605.705 58.0682 604.795 55.3295 602.977 53.3523C601.182 51.375 598.693 50.3864 595.511 50.3864C593.352 50.3864 591.432 50.8636 589.75 51.8182C588.091 52.75 586.784 54.1023 585.83 55.875C584.898 57.6477 584.432 59.7955 584.432 62.3182Z" fill="white"/>
<mask id="mask0_9_2" style="mask-type:alpha" maskUnits="userSpaceOnUse" x="28" y="20" width="102" height="102">
<path d="M103.692 38.9975C103.352 38.9975 103.012 38.9125 102.715 38.7425C94.555 34.535 87.5 32.75 79.0425 32.75C70.6275 32.75 62.6375 34.7475 55.37 38.7425C54.35 39.295 53.075 38.9125 52.48 37.8925C51.9275 36.8725 52.31 35.555 53.33 35.0025C61.235 30.71 69.905 28.5 79.0425 28.5C88.095 28.5 96 30.4975 104.67 34.96C105.732 35.5125 106.115 36.7875 105.562 37.8075C105.18 38.5725 104.457 38.9975 103.692 38.9975V38.9975ZM42.875 61.31C42.45 61.31 42.025 61.1825 41.6425 60.9275C40.665 60.2475 40.4525 58.93 41.1325 57.9525C45.34 52.0025 50.695 47.3275 57.07 44.055C70.415 37.17 87.5 37.1275 100.887 44.0125C107.262 47.285 112.617 51.9175 116.825 57.825C117.505 58.76 117.292 60.12 116.315 60.8C115.337 61.48 114.02 61.2675 113.34 60.29C109.515 54.935 104.67 50.7275 98.9325 47.795C86.735 41.5475 71.1375 41.5475 58.9825 47.8375C53.2025 50.8125 48.3575 55.0625 44.5325 60.4175C44.1925 61.0125 43.555 61.31 42.875 61.31V61.31ZM69.4375 112.608C68.885 112.608 68.3325 112.395 67.95 111.97C64.2525 108.272 62.255 105.893 59.4075 100.75C56.475 95.5225 54.945 89.1475 54.945 82.305C54.945 69.6825 65.74 59.3975 79 59.3975C92.26 59.3975 103.055 69.6825 103.055 82.305C103.055 83.495 102.12 84.43 100.93 84.43C99.74 84.43 98.805 83.495 98.805 82.305C98.805 72.02 89.9225 63.6475 79 63.6475C68.0775 63.6475 59.195 72.02 59.195 82.305C59.195 88.425 60.555 94.0775 63.1475 98.6675C65.8675 103.555 67.7375 105.638 71.01 108.953C71.8175 109.803 71.8175 111.12 71.01 111.97C70.5425 112.395 69.99 112.608 69.4375 112.608ZM99.91 104.745C94.8525 104.745 90.39 103.47 86.735 100.962C80.4025 96.67 76.62 89.7 76.62 82.305C76.62 81.115 77.555 80.18 78.745 80.18C79.935 80.18 80.87 81.115 80.87 82.305C80.87 88.2975 83.93 93.95 89.115 97.435C92.1325 99.475 95.66 100.453 99.91 100.453C100.93 100.453 102.63 100.325 104.33 100.027C105.477 99.815 106.582 100.58 106.795 101.77C107.007 102.917 106.242 104.022 105.052 104.235C102.63 104.702 100.505 104.745 99.91 104.745V104.745ZM91.3675 113.5C91.1975 113.5 90.985 113.457 90.815 113.415C84.0575 111.545 79.6375 109.037 75.005 104.49C69.055 98.5825 65.7825 90.72 65.7825 82.305C65.7825 75.42 71.6475 69.81 78.8725 69.81C86.0975 69.81 91.9625 75.42 91.9625 82.305C91.9625 86.8525 95.915 90.55 100.802 90.55C105.69 90.55 109.642 86.8525 109.642 82.305C109.642 66.2825 95.83 53.2775 78.83 53.2775C66.76 53.2775 55.71 59.9925 50.7375 70.405C49.08 73.8475 48.23 77.885 48.23 82.305C48.23 85.62 48.5275 90.8475 51.0775 97.6475C51.5025 98.7525 50.95 99.985 49.845 100.367C48.74 100.792 47.5075 100.198 47.125 99.135C45.0425 93.5675 44.0225 88.0425 44.0225 82.305C44.0225 77.205 45 72.5725 46.9125 68.535C52.565 56.6775 65.1025 48.985 78.83 48.985C98.1675 48.985 113.892 63.9025 113.892 82.2625C113.892 89.1475 108.027 94.7575 100.802 94.7575C93.5775 94.7575 87.7125 89.1475 87.7125 82.2625C87.7125 77.715 83.76 74.0175 78.8725 74.0175C73.985 74.0175 70.0325 77.715 70.0325 82.2625C70.0325 89.53 72.8375 96.33 77.98 101.43C82.0175 105.425 85.885 107.635 91.8775 109.293C93.025 109.59 93.6625 110.78 93.365 111.885C93.1525 112.863 92.26 113.5 91.3675 113.5V113.5Z" fill="black"/>
</mask>
<g mask="url(#mask0_9_2)">
<rect width="149" height="155" fill="url(#paint0_linear_9_2)"/>
</g>
<mask id="mask1_9_2" style="mask-type:alpha" maskUnits="userSpaceOnUse" x="19" y="6" width="120" height="143">
<path d="M55.4935 16.5507L55.501 16.5485C64.8395 13.9106 73.9676 11.7931 79.0213 11.7931C84.0738 11.7931 93.1917 13.9168 102.538 16.5388C110.687 18.869 118.781 21.4031 126.813 24.1389C128.229 24.6271 129.513 25.5294 130.5 26.7699C131.489 28.0136 132.135 29.542 132.342 31.1835L132.344 31.1939C137.228 69.3174 125.905 97.3392 112.33 115.788L112.324 115.797L112.318 115.805C106.563 123.695 99.7067 130.636 91.9807 136.399L91.9793 136.4C89.4074 138.32 86.6851 140.008 83.8421 141.446C81.5525 142.56 79.8999 143.043 79.0213 143.043C78.1375 143.043 76.4631 142.554 74.1766 141.434L74.1727 141.432C71.9082 140.325 69.1265 138.65 66.0469 136.388C58.3272 130.626 51.4757 123.689 45.7246 115.805L45.7185 115.796L45.7123 115.788C32.1376 97.3392 20.8142 69.3174 25.6991 31.1939L25.7002 31.1848C25.9074 29.5447 26.5537 28.0178 27.5429 26.7755C28.5291 25.5368 29.8111 24.6361 31.2266 24.149C36.7852 22.2621 46.192 19.1625 55.4935 16.5507Z" stroke="white" stroke-width="10"/>
</mask>
<g mask="url(#mask1_9_2)">
<rect x="41.1269" y="202.376" width="167.287" height="183" transform="rotate(-123.911 41.1269 202.376)" fill="url(#paint1_linear_9_2)"/>
</g>
<defs>
<linearGradient id="paint0_linear_9_2" x1="56.4005" y1="4.28729" x2="60.8104" y2="172.752" gradientUnits="userSpaceOnUse">
<stop stop-color="#E82525"/>
<stop offset="1" stop-color="#9E00FF"/>
</linearGradient>
<linearGradient id="paint1_linear_9_2" x1="104.45" y1="207.438" x2="109.924" y2="406.32" gradientUnits="userSpaceOnUse">
<stop stop-color="#E82525"/>
<stop offset="1" stop-color="#9E00FF"/>
</linearGradient>
</defs>
</svg>
