<svg width="629" height="155" viewBox="0 0 629 155" fill="none" xmlns="http://www.w3.org/2000/svg">
<path d="M405.926 140L408.807 131.392H421.932L424.83 140H431.58L419.273 105.091H411.466L399.176 140H405.926ZM410.511 126.312L415.233 112.25H415.506L420.227 126.312H410.511ZM446.528 140.511C453.108 140.511 457.301 136.608 457.744 131.051H451.847C451.318 133.864 449.29 135.483 446.58 135.483C442.727 135.483 440.239 132.261 440.239 126.909C440.239 121.625 442.778 118.455 446.58 118.455C449.545 118.455 451.369 120.364 451.847 122.886H457.744C457.318 117.21 452.886 113.477 446.494 113.477C438.824 113.477 433.983 119.017 433.983 127.011C433.983 134.938 438.705 140.511 446.528 140.511ZM474.232 140.511C480.811 140.511 485.004 136.608 485.447 131.051H479.55C479.021 133.864 476.993 135.483 474.283 135.483C470.43 135.483 467.942 132.261 467.942 126.909C467.942 121.625 470.482 118.455 474.283 118.455C477.249 118.455 479.072 120.364 479.55 122.886H485.447C485.021 117.21 480.59 113.477 474.197 113.477C466.527 113.477 461.686 119.017 461.686 127.011C461.686 134.938 466.408 140.511 474.232 140.511ZM501.935 140.511C509.605 140.511 514.48 135.108 514.48 127.011C514.48 118.898 509.605 113.477 501.935 113.477C494.264 113.477 489.389 118.898 489.389 127.011C489.389 135.108 494.264 140.511 501.935 140.511ZM501.969 135.568C497.724 135.568 495.645 131.784 495.645 126.994C495.645 122.205 497.724 118.369 501.969 118.369C506.145 118.369 508.224 122.205 508.224 126.994C508.224 131.784 506.145 135.568 501.969 135.568ZM536.405 128.989C536.405 132.977 533.558 134.955 530.831 134.955C527.865 134.955 525.888 132.858 525.888 129.534V113.818H519.717V130.489C519.717 136.778 523.297 140.341 528.445 140.341C532.365 140.341 535.126 138.278 536.32 135.347H536.592V140H542.575V113.818H536.405V128.989ZM555.091 124.659C555.091 120.875 557.375 118.693 560.631 118.693C563.818 118.693 565.727 120.79 565.727 124.284V140H571.898V123.33C571.915 117.057 568.335 113.477 562.932 113.477C559.011 113.477 556.318 115.352 555.125 118.267H554.818V113.818H548.92V140H555.091V124.659ZM591.244 113.818H586.08V107.545H579.909V113.818H576.193V118.591H579.909V133.148C579.875 138.074 583.455 140.494 588.091 140.358C589.847 140.307 591.057 139.966 591.722 139.744L590.682 134.92C590.341 135.006 589.642 135.159 588.875 135.159C587.324 135.159 586.08 134.614 586.08 132.125V118.591H591.244V113.818ZM616.723 120.739C615.871 116.307 612.325 113.477 606.189 113.477C599.882 113.477 595.587 116.58 595.604 121.42C595.587 125.239 597.939 127.761 602.967 128.801L607.433 129.739C609.837 130.267 610.962 131.239 610.962 132.722C610.962 134.511 609.018 135.858 606.087 135.858C603.257 135.858 601.416 134.631 600.888 132.278L594.871 132.858C595.638 137.665 599.678 140.511 606.104 140.511C612.649 140.511 617.268 137.119 617.286 132.159C617.268 128.426 614.865 126.142 609.922 125.068L605.456 124.114C602.797 123.517 601.74 122.597 601.757 121.08C601.74 119.307 603.7 118.08 606.274 118.08C609.121 118.08 610.621 119.631 611.098 121.352L616.723 120.739Z" fill="black"/>
<path d="M184.886 93H197.534V67.4318H210.42L224.125 93H238.239L223.136 65.3182C231.352 62.0114 235.682 54.9886 235.682 45.5114C235.682 32.1818 227.091 23.1818 211.068 23.1818H184.886V93ZM197.534 56.9318V33.75H209.125C218.568 33.75 222.795 38.0795 222.795 45.5114C222.795 52.9432 218.568 56.9318 209.193 56.9318H197.534ZM280.153 70.9773C280.153 78.9545 274.46 82.9091 269.006 82.9091C263.074 82.9091 259.119 78.7159 259.119 72.0682V40.6364H246.778V73.9773C246.778 86.5568 253.938 93.6818 264.233 93.6818C272.074 93.6818 277.597 89.5568 279.983 83.6932H280.528V93H292.494V40.6364H280.153V70.9773ZM331.332 40.6364H321.003V28.0909H308.662V40.6364H301.23V50.1818H308.662V79.2955C308.594 89.1477 315.753 93.9886 325.026 93.7159C328.537 93.6136 330.957 92.9318 332.287 92.4886L330.207 82.8409C329.526 83.0114 328.128 83.3182 326.594 83.3182C323.492 83.3182 321.003 82.2273 321.003 77.25V50.1818H331.332V40.6364ZM382.29 54.4773C380.585 45.6136 373.494 39.9545 361.222 39.9545C348.608 39.9545 340.017 46.1591 340.051 55.8409C340.017 63.4773 344.722 68.5227 354.778 70.6023L363.71 72.4773C368.517 73.5341 370.767 75.4773 370.767 78.4432C370.767 82.0227 366.881 84.7159 361.017 84.7159C355.358 84.7159 351.676 82.2614 350.619 77.5568L338.585 78.7159C340.119 88.3295 348.199 94.0227 361.051 94.0227C374.142 94.0227 383.381 87.2386 383.415 77.3182C383.381 69.8523 378.574 65.2841 368.688 63.1364L359.756 61.2273C354.438 60.0341 352.324 58.1932 352.358 55.1591C352.324 51.6136 356.244 49.1591 361.392 49.1591C367.085 49.1591 370.085 52.2614 371.04 55.7045L382.29 54.4773ZM426.966 70.9773C426.966 78.9545 421.273 82.9091 415.818 82.9091C409.886 82.9091 405.932 78.7159 405.932 72.0682V40.6364H393.591V73.9773C393.591 86.5568 400.75 93.6818 411.045 93.6818C418.886 93.6818 424.409 89.5568 426.795 83.6932H427.341V93H439.307V40.6364H426.966V70.9773ZM452.543 93H465.19V72.2045L472.929 63.0682L493.759 93H508.963L481.724 54.5114L508.724 23.1818H493.281L466.043 55.2614H465.19V23.1818H452.543V93ZM547.06 70.9773C547.06 78.9545 541.367 82.9091 535.912 82.9091C529.98 82.9091 526.026 78.7159 526.026 72.0682V40.6364H513.685V73.9773C513.685 86.5568 520.844 93.6818 531.139 93.6818C538.98 93.6818 544.503 89.5568 546.889 83.6932H547.435V93H559.401V40.6364H547.06V70.9773ZM584.432 62.3182C584.432 54.75 589 50.3864 595.511 50.3864C601.886 50.3864 605.705 54.5795 605.705 61.5682V93H618.045V59.6591C618.08 47.1136 610.92 39.9545 600.114 39.9545C592.273 39.9545 586.886 43.7045 584.5 49.5341H583.886V40.6364H572.091V93H584.432V62.3182Z" fill="black"/>
<mask id="mask0_1_7" style="mask-type:alpha" maskUnits="userSpaceOnUse" x="28" y="20" width="102" height="102">
<path d="M103.692 38.9975C103.352 38.9975 103.012 38.9125 102.715 38.7425C94.555 34.535 87.5 32.75 79.0425 32.75C70.6275 32.75 62.6375 34.7475 55.37 38.7425C54.35 39.295 53.075 38.9125 52.48 37.8925C51.9275 36.8725 52.31 35.555 53.33 35.0025C61.235 30.71 69.905 28.5 79.0425 28.5C88.095 28.5 96 30.4975 104.67 34.96C105.732 35.5125 106.115 36.7875 105.562 37.8075C105.18 38.5725 104.457 38.9975 103.692 38.9975V38.9975ZM42.875 61.31C42.45 61.31 42.025 61.1825 41.6425 60.9275C40.665 60.2475 40.4525 58.93 41.1325 57.9525C45.34 52.0025 50.695 47.3275 57.07 44.055C70.415 37.17 87.5 37.1275 100.887 44.0125C107.262 47.285 112.617 51.9175 116.825 57.825C117.505 58.76 117.292 60.12 116.315 60.8C115.337 61.48 114.02 61.2675 113.34 60.29C109.515 54.935 104.67 50.7275 98.9325 47.795C86.735 41.5475 71.1375 41.5475 58.9825 47.8375C53.2025 50.8125 48.3575 55.0625 44.5325 60.4175C44.1925 61.0125 43.555 61.31 42.875 61.31V61.31ZM69.4375 112.608C68.885 112.608 68.3325 112.395 67.95 111.97C64.2525 108.272 62.255 105.893 59.4075 100.75C56.475 95.5225 54.945 89.1475 54.945 82.305C54.945 69.6825 65.74 59.3975 79 59.3975C92.26 59.3975 103.055 69.6825 103.055 82.305C103.055 83.495 102.12 84.43 100.93 84.43C99.74 84.43 98.805 83.495 98.805 82.305C98.805 72.02 89.9225 63.6475 79 63.6475C68.0775 63.6475 59.195 72.02 59.195 82.305C59.195 88.425 60.555 94.0775 63.1475 98.6675C65.8675 103.555 67.7375 105.638 71.01 108.953C71.8175 109.803 71.8175 111.12 71.01 111.97C70.5425 112.395 69.99 112.608 69.4375 112.608ZM99.91 104.745C94.8525 104.745 90.39 103.47 86.735 100.962C80.4025 96.67 76.62 89.7 76.62 82.305C76.62 81.115 77.555 80.18 78.745 80.18C79.935 80.18 80.87 81.115 80.87 82.305C80.87 88.2975 83.93 93.95 89.115 97.435C92.1325 99.475 95.66 100.453 99.91 100.453C100.93 100.453 102.63 100.325 104.33 100.027C105.477 99.815 106.582 100.58 106.795 101.77C107.007 102.917 106.242 104.022 105.052 104.235C102.63 104.702 100.505 104.745 99.91 104.745V104.745ZM91.3675 113.5C91.1975 113.5 90.985 113.457 90.815 113.415C84.0575 111.545 79.6375 109.037 75.005 104.49C69.055 98.5825 65.7825 90.72 65.7825 82.305C65.7825 75.42 71.6475 69.81 78.8725 69.81C86.0975 69.81 91.9625 75.42 91.9625 82.305C91.9625 86.8525 95.915 90.55 100.802 90.55C105.69 90.55 109.642 86.8525 109.642 82.305C109.642 66.2825 95.83 53.2775 78.83 53.2775C66.76 53.2775 55.71 59.9925 50.7375 70.405C49.08 73.8475 48.23 77.885 48.23 82.305C48.23 85.62 48.5275 90.8475 51.0775 97.6475C51.5025 98.7525 50.95 99.985 49.845 100.367C48.74 100.792 47.5075 100.198 47.125 99.135C45.0425 93.5675 44.0225 88.0425 44.0225 82.305C44.0225 77.205 45 72.5725 46.9125 68.535C52.565 56.6775 65.1025 48.985 78.83 48.985C98.1675 48.985 113.892 63.9025 113.892 82.2625C113.892 89.1475 108.027 94.7575 100.802 94.7575C93.5775 94.7575 87.7125 89.1475 87.7125 82.2625C87.7125 77.715 83.76 74.0175 78.8725 74.0175C73.985 74.0175 70.0325 77.715 70.0325 82.2625C70.0325 89.53 72.8375 96.33 77.98 101.43C82.0175 105.425 85.885 107.635 91.8775 109.293C93.025 109.59 93.6625 110.78 93.365 111.885C93.1525 112.863 92.26 113.5 91.3675 113.5V113.5Z" fill="black"/>
</mask>
<g mask="url(#mask0_1_7)">
<rect width="149" height="155" fill="url(#paint0_linear_1_7)"/>
</g>
<mask id="mask1_1_7" style="mask-type:alpha" maskUnits="userSpaceOnUse" x="19" y="6" width="120" height="143">
<path d="M55.4935 16.5507L55.501 16.5486C64.8395 13.9106 73.9676 11.7931 79.0213 11.7931C84.0738 11.7931 93.1917 13.9168 102.538 16.5388C110.687 18.869 118.781 21.4031 126.813 24.139C128.229 24.6271 129.513 25.5294 130.5 26.7699C131.489 28.0136 132.135 29.542 132.342 31.1835L132.344 31.1939C137.228 69.3174 125.905 97.3392 112.33 115.788L112.324 115.797L112.318 115.805C106.563 123.695 99.7067 130.636 91.9807 136.399L91.9793 136.4C89.4074 138.32 86.6851 140.008 83.8421 141.446C81.5525 142.56 79.8999 143.043 79.0213 143.043C78.1375 143.043 76.4631 142.554 74.1766 141.434L74.1727 141.432C71.9082 140.325 69.1265 138.65 66.0469 136.388C58.3272 130.626 51.4757 123.689 45.7246 115.805L45.7185 115.796L45.7123 115.788C32.1376 97.3392 20.8142 69.3174 25.6991 31.1939L25.7002 31.1848C25.9074 29.5447 26.5537 28.0178 27.5429 26.7755C28.5291 25.5368 29.8111 24.6361 31.2266 24.149C36.7852 22.2621 46.192 19.1625 55.4935 16.5507Z" stroke="white" stroke-width="10"/>
</mask>
<g mask="url(#mask1_1_7)">
<rect x="41.1269" y="202.376" width="167.287" height="183" transform="rotate(-123.911 41.1269 202.376)" fill="url(#paint1_linear_1_7)"/>
</g>
<defs>
<linearGradient id="paint0_linear_1_7" x1="56.4005" y1="4.28729" x2="60.8104" y2="172.752" gradientUnits="userSpaceOnUse">
<stop stop-color="#E82525"/>
<stop offset="1" stop-color="#9E00FF"/>
</linearGradient>
<linearGradient id="paint1_linear_1_7" x1="104.45" y1="207.438" x2="109.924" y2="406.32" gradientUnits="userSpaceOnUse">
<stop stop-color="#E82525"/>
<stop offset="1" stop-color="#9E00FF"/>
</linearGradient>
</defs>
</svg>
