<svg width="754" height="155" viewBox="0 0 754 155" fill="none" xmlns="http://www.w3.org/2000/svg">
<path d="M644.582 55V28.8182H654.605C656.497 28.8182 658.07 29.1165 659.322 29.7131C660.584 30.3011 661.526 31.1065 662.148 32.1293C662.778 33.152 663.094 34.3111 663.094 35.6065C663.094 36.6719 662.889 37.5838 662.48 38.3423C662.071 39.0923 661.521 39.7017 660.831 40.1705C660.141 40.6392 659.369 40.9759 658.517 41.1804V41.4361C659.446 41.4872 660.337 41.7727 661.189 42.2926C662.05 42.804 662.753 43.5284 663.298 44.4659C663.844 45.4034 664.116 46.5369 664.116 47.8665C664.116 49.2216 663.788 50.4403 663.132 51.5227C662.476 52.5966 661.487 53.4446 660.166 54.0668C658.845 54.6889 657.183 55 655.18 55H644.582ZM649.325 51.0369H654.426C656.148 51.0369 657.388 50.7088 658.146 50.0526C658.913 49.3878 659.297 48.5355 659.297 47.4957C659.297 46.7202 659.105 46.0213 658.722 45.3991C658.338 44.7685 657.793 44.2741 657.085 43.9162C656.378 43.5497 655.534 43.3665 654.554 43.3665H649.325V51.0369ZM649.325 39.9531H654.017C654.835 39.9531 655.572 39.804 656.229 39.5057C656.885 39.1989 657.401 38.7685 657.776 38.2145C658.159 37.652 658.351 36.9872 658.351 36.2202C658.351 35.206 657.993 34.3707 657.277 33.7145C656.57 33.0582 655.517 32.7301 654.119 32.7301H649.325V39.9531ZM668.243 55V28.8182H685.271V32.794H672.985V39.902H684.389V43.8778H672.985V51.0241H685.373V55H668.243ZM688.959 32.794V28.8182H709.848V32.794H701.756V55H697.051V32.794H688.959ZM714.074 55H709.011L718.228 28.8182H724.083L733.314 55H728.251L721.258 34.1875H721.054L714.074 55ZM714.24 44.7344H728.047V48.544H714.24V44.7344Z" fill="white"/>
<path d="M479.926 139H473.176L485.466 104.091H493.273L505.58 139H498.83L489.506 111.25H489.233L479.926 139ZM480.148 125.312H498.557V130.392H480.148V125.312ZM518.824 139.46C516.767 139.46 514.926 138.932 513.301 137.875C511.676 136.818 510.392 135.284 509.449 133.273C508.506 131.261 508.034 128.818 508.034 125.943C508.034 123.034 508.511 120.58 509.466 118.58C510.432 116.568 511.733 115.051 513.369 114.028C515.006 112.994 516.83 112.477 518.841 112.477C520.375 112.477 521.636 112.739 522.625 113.261C523.614 113.773 524.398 114.392 524.977 115.119C525.557 115.835 526.006 116.511 526.324 117.148H526.58V104.091H532.767V139H526.699V134.875H526.324C526.006 135.511 525.545 136.187 524.943 136.903C524.341 137.608 523.545 138.21 522.557 138.71C521.568 139.21 520.324 139.46 518.824 139.46ZM520.545 134.398C521.852 134.398 522.966 134.045 523.886 133.341C524.807 132.625 525.506 131.631 525.983 130.358C526.46 129.085 526.699 127.602 526.699 125.909C526.699 124.216 526.46 122.744 525.983 121.494C525.517 120.244 524.824 119.273 523.903 118.58C522.994 117.886 521.875 117.54 520.545 117.54C519.17 117.54 518.023 117.898 517.102 118.614C516.182 119.33 515.489 120.318 515.023 121.58C514.557 122.841 514.324 124.284 514.324 125.909C514.324 127.545 514.557 129.006 515.023 130.29C515.5 131.562 516.199 132.568 517.119 133.307C518.051 134.034 519.193 134.398 520.545 134.398ZM539.342 139V112.818H545.24V117.267H545.547C546.092 115.767 546.996 114.597 548.257 113.756C549.518 112.903 551.024 112.477 552.774 112.477C554.547 112.477 556.041 112.909 557.257 113.773C558.484 114.625 559.348 115.79 559.848 117.267H560.121C560.7 115.812 561.678 114.653 563.053 113.79C564.439 112.915 566.081 112.477 567.979 112.477C570.388 112.477 572.354 113.239 573.876 114.761C575.399 116.284 576.161 118.506 576.161 121.426V139H569.973V122.381C569.973 120.756 569.541 119.568 568.678 118.818C567.814 118.057 566.757 117.676 565.507 117.676C564.018 117.676 562.854 118.142 562.013 119.074C561.183 119.994 560.768 121.193 560.768 122.67V139H554.717V122.125C554.717 120.773 554.308 119.693 553.49 118.886C552.683 118.08 551.626 117.676 550.32 117.676C549.433 117.676 548.626 117.903 547.899 118.358C547.172 118.801 546.592 119.432 546.161 120.25C545.729 121.057 545.513 122 545.513 123.08V139H539.342ZM582.42 139V112.818H588.591V139H582.42ZM585.523 109.102C584.545 109.102 583.705 108.778 583 108.131C582.295 107.472 581.943 106.682 581.943 105.761C581.943 104.83 582.295 104.04 583 103.392C583.705 102.733 584.545 102.403 585.523 102.403C586.511 102.403 587.352 102.733 588.045 103.392C588.75 104.04 589.102 104.83 589.102 105.761C589.102 106.682 588.75 107.472 588.045 108.131C587.352 108.778 586.511 109.102 585.523 109.102ZM601.107 123.659V139H594.936V112.818H600.834V117.267H601.141C601.743 115.801 602.703 114.636 604.021 113.773C605.351 112.909 606.993 112.477 608.947 112.477C610.754 112.477 612.328 112.864 613.669 113.636C615.021 114.409 616.067 115.528 616.805 116.994C617.555 118.46 617.925 120.239 617.913 122.33V139H611.743V123.284C611.743 121.534 611.288 120.165 610.379 119.176C609.482 118.187 608.237 117.693 606.646 117.693C605.567 117.693 604.607 117.932 603.766 118.409C602.936 118.875 602.283 119.551 601.805 120.438C601.339 121.324 601.107 122.398 601.107 123.659Z" fill="white"/>
<path d="M184.886 93V23.1818H211.068C216.432 23.1818 220.932 24.1136 224.568 25.9773C228.227 27.8409 230.989 30.4545 232.852 33.8182C234.739 37.1591 235.682 41.0568 235.682 45.5114C235.682 49.9886 234.727 53.875 232.818 57.1705C230.932 60.4432 228.148 62.9773 224.466 64.7727C220.784 66.5455 216.261 67.4318 210.898 67.4318H192.25V56.9318H209.193C212.33 56.9318 214.898 56.5 216.898 55.6364C218.898 54.75 220.375 53.4659 221.33 51.7841C222.307 50.0795 222.795 47.9886 222.795 45.5114C222.795 43.0341 222.307 40.9205 221.33 39.1705C220.352 37.3977 218.864 36.0568 216.864 35.1477C214.864 34.2159 212.284 33.75 209.125 33.75H197.534V93H184.886ZM220.955 61.3636L238.239 93H224.125L207.148 61.3636H220.955ZM280.153 70.9773V40.6364H292.494V93H280.528V83.6932H279.983C278.801 86.625 276.858 89.0227 274.153 90.8864C271.472 92.75 268.165 93.6818 264.233 93.6818C260.801 93.6818 257.767 92.9205 255.131 91.3977C252.517 89.8523 250.472 87.6136 248.994 84.6818C247.517 81.7273 246.778 78.1591 246.778 73.9773V40.6364H259.119V72.0682C259.119 75.3864 260.028 78.0227 261.847 79.9773C263.665 81.9318 266.051 82.9091 269.006 82.9091C270.824 82.9091 272.585 82.4659 274.29 81.5795C275.994 80.6932 277.392 79.375 278.483 77.625C279.597 75.8523 280.153 73.6364 280.153 70.9773ZM331.332 40.6364V50.1818H301.23V40.6364H331.332ZM308.662 28.0909H321.003V77.25C321.003 78.9091 321.253 80.1818 321.753 81.0682C322.276 81.9318 322.957 82.5227 323.798 82.8409C324.639 83.1591 325.571 83.3182 326.594 83.3182C327.366 83.3182 328.071 83.2614 328.707 83.1477C329.366 83.0341 329.866 82.9318 330.207 82.8409L332.287 92.4886C331.628 92.7159 330.685 92.9659 329.457 93.2386C328.253 93.5114 326.776 93.6705 325.026 93.7159C321.935 93.8068 319.151 93.3409 316.673 92.3182C314.196 91.2727 312.23 89.6591 310.776 87.4773C309.344 85.2955 308.639 82.5682 308.662 79.2955V28.0909ZM382.29 54.4773L371.04 55.7045C370.722 54.5682 370.165 53.5 369.369 52.5C368.597 51.5 367.551 50.6932 366.233 50.0795C364.915 49.4659 363.301 49.1591 361.392 49.1591C358.824 49.1591 356.665 49.7159 354.915 50.8295C353.188 51.9432 352.335 53.3864 352.358 55.1591C352.335 56.6818 352.892 57.9205 354.028 58.875C355.188 59.8295 357.097 60.6136 359.756 61.2273L368.688 63.1364C373.642 64.2045 377.324 65.8977 379.733 68.2159C382.165 70.5341 383.392 73.5682 383.415 77.3182C383.392 80.6136 382.426 83.5227 380.517 86.0455C378.631 88.5455 376.006 90.5 372.642 91.9091C369.278 93.3182 365.415 94.0227 361.051 94.0227C354.642 94.0227 349.483 92.6818 345.574 90C341.665 87.2955 339.335 83.5341 338.585 78.7159L350.619 77.5568C351.165 79.9205 352.324 81.7045 354.097 82.9091C355.869 84.1136 358.176 84.7159 361.017 84.7159C363.949 84.7159 366.301 84.1136 368.074 82.9091C369.869 81.7045 370.767 80.2159 370.767 78.4432C370.767 76.9432 370.188 75.7045 369.028 74.7273C367.892 73.75 366.119 73 363.71 72.4773L354.778 70.6023C349.756 69.5568 346.04 67.7955 343.631 65.3182C341.222 62.8182 340.028 59.6591 340.051 55.8409C340.028 52.6136 340.903 49.8182 342.676 47.4545C344.472 45.0682 346.96 43.2273 350.142 41.9318C353.347 40.6136 357.04 39.9545 361.222 39.9545C367.358 39.9545 372.188 41.2614 375.71 43.875C379.256 46.4886 381.449 50.0227 382.29 54.4773ZM426.966 70.9773V40.6364H439.307V93H427.341V83.6932H426.795C425.614 86.625 423.67 89.0227 420.966 90.8864C418.284 92.75 414.977 93.6818 411.045 93.6818C407.614 93.6818 404.58 92.9205 401.943 91.3977C399.33 89.8523 397.284 87.6136 395.807 84.6818C394.33 81.7273 393.591 78.1591 393.591 73.9773V40.6364H405.932V72.0682C405.932 75.3864 406.841 78.0227 408.659 79.9773C410.477 81.9318 412.864 82.9091 415.818 82.9091C417.636 82.9091 419.398 82.4659 421.102 81.5795C422.807 80.6932 424.205 79.375 425.295 77.625C426.409 75.8523 426.966 73.6364 426.966 70.9773ZM452.543 93V23.1818H465.19V55.2614H466.043L493.281 23.1818H508.724L481.724 54.5114L508.963 93H493.759L472.929 63.0682L465.19 72.2045V93H452.543ZM547.06 70.9773V40.6364H559.401V93H547.435V83.6932H546.889C545.707 86.625 543.764 89.0227 541.06 90.8864C538.378 92.75 535.071 93.6818 531.139 93.6818C527.707 93.6818 524.673 92.9205 522.037 91.3977C519.423 89.8523 517.378 87.6136 515.901 84.6818C514.423 81.7273 513.685 78.1591 513.685 73.9773V40.6364H526.026V72.0682C526.026 75.3864 526.935 78.0227 528.753 79.9773C530.571 81.9318 532.957 82.9091 535.912 82.9091C537.73 82.9091 539.491 82.4659 541.196 81.5795C542.901 80.6932 544.298 79.375 545.389 77.625C546.503 75.8523 547.06 73.6364 547.06 70.9773ZM584.432 62.3182V93H572.091V40.6364H583.886V49.5341H584.5C585.705 46.6023 587.625 44.2727 590.261 42.5455C592.92 40.8182 596.205 39.9545 600.114 39.9545C603.727 39.9545 606.875 40.7273 609.557 42.2727C612.261 43.8182 614.352 46.0568 615.83 48.9886C617.33 51.9205 618.068 55.4773 618.045 59.6591V93H605.705V61.5682C605.705 58.0682 604.795 55.3295 602.977 53.3523C601.182 51.375 598.693 50.3864 595.511 50.3864C593.352 50.3864 591.432 50.8636 589.75 51.8182C588.091 52.75 586.784 54.1023 585.83 55.875C584.898 57.6477 584.432 59.7955 584.432 62.3182Z" fill="white"/>
<mask id="mask0_103_141" style="mask-type:alpha" maskUnits="userSpaceOnUse" x="28" y="20" width="102" height="102">
<path d="M103.692 38.9975C103.352 38.9975 103.012 38.9125 102.715 38.7425C94.555 34.535 87.5 32.75 79.0425 32.75C70.6275 32.75 62.6375 34.7475 55.37 38.7425C54.35 39.295 53.075 38.9125 52.48 37.8925C51.9275 36.8725 52.31 35.555 53.33 35.0025C61.235 30.71 69.905 28.5 79.0425 28.5C88.095 28.5 96 30.4975 104.67 34.96C105.732 35.5125 106.115 36.7875 105.562 37.8075C105.18 38.5725 104.457 38.9975 103.692 38.9975ZM42.875 61.31C42.45 61.31 42.025 61.1825 41.6425 60.9275C40.665 60.2475 40.4525 58.93 41.1325 57.9525C45.34 52.0025 50.695 47.3275 57.07 44.055C70.415 37.17 87.5 37.1275 100.887 44.0125C107.262 47.285 112.617 51.9175 116.825 57.825C117.505 58.76 117.292 60.12 116.315 60.8C115.338 61.48 114.02 61.2675 113.34 60.29C109.515 54.935 104.67 50.7275 98.9325 47.795C86.735 41.5475 71.1375 41.5475 58.9825 47.8375C53.2025 50.8125 48.3575 55.0625 44.5325 60.4175C44.1925 61.0125 43.555 61.31 42.875 61.31ZM69.4375 112.608C68.885 112.608 68.3325 112.395 67.95 111.97C64.2525 108.272 62.255 105.893 59.4075 100.75C56.475 95.5225 54.945 89.1475 54.945 82.305C54.945 69.6825 65.74 59.3975 79 59.3975C92.26 59.3975 103.055 69.6825 103.055 82.305C103.055 83.495 102.12 84.43 100.93 84.43C99.74 84.43 98.805 83.495 98.805 82.305C98.805 72.02 89.9225 63.6475 79 63.6475C68.0775 63.6475 59.195 72.02 59.195 82.305C59.195 88.425 60.555 94.0775 63.1475 98.6675C65.8675 103.555 67.7375 105.638 71.01 108.952C71.8175 109.802 71.8175 111.12 71.01 111.97C70.5425 112.395 69.99 112.608 69.4375 112.608ZM99.91 104.745C94.8525 104.745 90.39 103.47 86.735 100.962C80.4025 96.67 76.62 89.7 76.62 82.305C76.62 81.115 77.555 80.18 78.745 80.18C79.935 80.18 80.87 81.115 80.87 82.305C80.87 88.2975 83.93 93.95 89.115 97.435C92.1325 99.475 95.66 100.452 99.91 100.452C100.93 100.452 102.63 100.325 104.33 100.027C105.477 99.815 106.582 100.58 106.795 101.77C107.007 102.917 106.242 104.022 105.052 104.235C102.63 104.702 100.505 104.745 99.91 104.745ZM91.3675 113.5C91.1975 113.5 90.985 113.457 90.815 113.415C84.0575 111.545 79.6375 109.037 75.005 104.49C69.055 98.5825 65.7825 90.72 65.7825 82.305C65.7825 75.42 71.6475 69.81 78.8725 69.81C86.0975 69.81 91.9625 75.42 91.9625 82.305C91.9625 86.8525 95.915 90.55 100.802 90.55C105.69 90.55 109.642 86.8525 109.642 82.305C109.642 66.2825 95.83 53.2775 78.83 53.2775C66.76 53.2775 55.71 59.9925 50.7375 70.405C49.08 73.8475 48.23 77.885 48.23 82.305C48.23 85.62 48.5275 90.8475 51.0775 97.6475C51.5025 98.7525 50.95 99.985 49.845 100.368C48.74 100.792 47.5075 100.198 47.125 99.135C45.0425 93.5675 44.0225 88.0425 44.0225 82.305C44.0225 77.205 45 72.5725 46.9125 68.535C52.565 56.6775 65.1025 48.985 78.83 48.985C98.1675 48.985 113.892 63.9025 113.892 82.2625C113.892 89.1475 108.027 94.7575 100.802 94.7575C93.5775 94.7575 87.7125 89.1475 87.7125 82.2625C87.7125 77.715 83.76 74.0175 78.8725 74.0175C73.985 74.0175 70.0325 77.715 70.0325 82.2625C70.0325 89.53 72.8375 96.33 77.98 101.43C82.0175 105.425 85.885 107.635 91.8775 109.293C93.025 109.59 93.6625 110.78 93.365 111.885C93.1525 112.863 92.26 113.5 91.3675 113.5Z" fill="black"/>
</mask>
<g mask="url(#mask0_103_141)">
<rect width="149" height="155" fill="url(#paint0_linear_103_141)"/>
</g>
<mask id="mask1_103_141" style="mask-type:alpha" maskUnits="userSpaceOnUse" x="19" y="6" width="120" height="143">
<path d="M55.4935 16.5507L55.501 16.5485C64.8395 13.9106 73.9676 11.7931 79.0213 11.7931C84.0738 11.7931 93.1917 13.9168 102.538 16.5388C110.687 18.869 118.781 21.4032 126.813 24.1391C128.23 24.6273 129.513 25.5295 130.5 26.7699C131.489 28.0136 132.135 29.542 132.342 31.1835L132.344 31.1939C137.228 69.3174 125.905 97.3392 112.33 115.788L112.324 115.797L112.318 115.805C106.563 123.695 99.7067 130.636 91.9807 136.399L91.9793 136.4C89.4074 138.32 86.6851 140.008 83.8421 141.446C81.5526 142.56 79.8999 143.043 79.0213 143.043C78.1375 143.043 76.4631 142.554 74.1766 141.434L74.1727 141.432C71.9085 140.326 69.1273 138.65 66.0482 136.389C58.328 130.627 51.4761 123.69 45.7246 115.805L45.7185 115.796L45.7123 115.788C32.1376 97.3392 20.8142 69.3174 25.6991 31.1939L25.7002 31.1848C25.9074 29.5447 26.5537 28.0178 27.5429 26.7755C28.5291 25.5368 29.8111 24.6361 31.2265 24.149C36.7851 22.2621 46.192 19.1625 55.4935 16.5507Z" stroke="white" stroke-width="10"/>
</mask>
<g mask="url(#mask1_103_141)">
<rect x="41.127" y="202.376" width="167.287" height="183" transform="rotate(-123.911 41.127 202.376)" fill="url(#paint1_linear_103_141)"/>
</g>
<defs>
<linearGradient id="paint0_linear_103_141" x1="56.4005" y1="4.28729" x2="60.8104" y2="172.752" gradientUnits="userSpaceOnUse">
<stop stop-color="#E82525"/>
<stop offset="1" stop-color="#9E00FF"/>
</linearGradient>
<linearGradient id="paint1_linear_103_141" x1="104.45" y1="207.438" x2="109.924" y2="406.32" gradientUnits="userSpaceOnUse">
<stop stop-color="#E82525"/>
<stop offset="1" stop-color="#9E00FF"/>
</linearGradient>
</defs>
</svg>
